<mxfile host="app.diagrams.net" agent="Mozilla/5.0 (Windows NT 10.0; Win64; x64) AppleWebKit/537.36 (KHTML, like Gecko) Chrome/131.0.0.0 Safari/537.36" version="25.0.1">
  <diagram name="Page-1" id="KlOv4l6uO2Zp8CqR2mGp">
    <mxGraphModel dx="2074" dy="1140" grid="1" gridSize="10" guides="1" tooltips="1" connect="1" arrows="1" fold="1" page="1" pageScale="1" pageWidth="850" pageHeight="1100" math="0" shadow="0">
      <root>
        <mxCell id="0" />
        <mxCell id="1" parent="0" />
        <mxCell id="VJARk3BsmmFIXW5mxC81-1" value="" style="shape=umlLifeline;perimeter=lifelinePerimeter;whiteSpace=wrap;html=1;container=1;dropTarget=0;collapsible=0;recursiveResize=0;outlineConnect=0;portConstraint=eastwest;newEdgeStyle={&quot;curved&quot;:0,&quot;rounded&quot;:0};participant=umlActor;fillColor=default;" parent="1" vertex="1">
          <mxGeometry x="150" y="160" width="20" height="620" as="geometry" />
        </mxCell>
        <mxCell id="VJARk3BsmmFIXW5mxC81-38" value="" style="html=1;points=[[0,0,0,0,5],[0,1,0,0,-5],[1,0,0,0,5],[1,1,0,0,-5]];perimeter=orthogonalPerimeter;outlineConnect=0;targetShapes=umlLifeline;portConstraint=eastwest;newEdgeStyle={&quot;curved&quot;:0,&quot;rounded&quot;:0};" parent="VJARk3BsmmFIXW5mxC81-1" vertex="1">
          <mxGeometry x="5" y="90" width="10" height="510" as="geometry" />
        </mxCell>
        <mxCell id="VJARk3BsmmFIXW5mxC81-2" value="System" style="shape=umlLifeline;perimeter=lifelinePerimeter;whiteSpace=wrap;html=1;container=1;dropTarget=0;collapsible=0;recursiveResize=0;outlineConnect=0;portConstraint=eastwest;newEdgeStyle={&quot;curved&quot;:0,&quot;rounded&quot;:0};fillColor=default;" parent="1" vertex="1">
          <mxGeometry x="400" y="160" width="100" height="620" as="geometry" />
        </mxCell>
        <mxCell id="VJARk3BsmmFIXW5mxC81-37" value="" style="html=1;points=[[0,0,0,0,5],[0,1,0,0,-5],[1,0,0,0,5],[1,1,0,0,-5]];perimeter=orthogonalPerimeter;outlineConnect=0;targetShapes=umlLifeline;portConstraint=eastwest;newEdgeStyle={&quot;curved&quot;:0,&quot;rounded&quot;:0};" parent="VJARk3BsmmFIXW5mxC81-2" vertex="1">
          <mxGeometry x="45" y="90" width="10" height="510" as="geometry" />
        </mxCell>
        <mxCell id="VJARk3BsmmFIXW5mxC81-3" value="Database" style="shape=umlLifeline;perimeter=lifelinePerimeter;whiteSpace=wrap;html=1;container=1;dropTarget=0;collapsible=0;recursiveResize=0;outlineConnect=0;portConstraint=eastwest;newEdgeStyle={&quot;curved&quot;:0,&quot;rounded&quot;:0};fillColor=default;" parent="1" vertex="1">
          <mxGeometry x="630" y="160" width="100" height="620" as="geometry" />
        </mxCell>
        <mxCell id="VJARk3BsmmFIXW5mxC81-36" value="" style="html=1;points=[[0,0,0,0,5],[0,1,0,0,-5],[1,0,0,0,5],[1,1,0,0,-5]];perimeter=orthogonalPerimeter;outlineConnect=0;targetShapes=umlLifeline;portConstraint=eastwest;newEdgeStyle={&quot;curved&quot;:0,&quot;rounded&quot;:0};" parent="VJARk3BsmmFIXW5mxC81-3" vertex="1">
          <mxGeometry x="45" y="500" width="10" height="60" as="geometry" />
        </mxCell>
        <mxCell id="VJARk3BsmmFIXW5mxC81-4" value="User" style="text;html=1;align=center;verticalAlign=middle;resizable=0;points=[];autosize=1;strokeColor=none;fillColor=none;" parent="1" vertex="1">
          <mxGeometry x="135" y="130" width="50" height="30" as="geometry" />
        </mxCell>
        <mxCell id="VJARk3BsmmFIXW5mxC81-11" value="alt" style="shape=umlFrame;whiteSpace=wrap;html=1;pointerEvents=0;fillColor=default;" parent="1" vertex="1">
          <mxGeometry x="130" y="340" width="350" height="180" as="geometry" />
        </mxCell>
        <mxCell id="VJARk3BsmmFIXW5mxC81-18" value="" style="endArrow=none;dashed=1;html=1;dashPattern=1 3;strokeWidth=2;rounded=0;exitX=0.003;exitY=0.528;exitDx=0;exitDy=0;exitPerimeter=0;entryX=1;entryY=0.533;entryDx=0;entryDy=0;entryPerimeter=0;" parent="1" source="VJARk3BsmmFIXW5mxC81-11" target="VJARk3BsmmFIXW5mxC81-11" edge="1">
          <mxGeometry width="50" height="50" relative="1" as="geometry">
            <mxPoint x="400" y="410" as="sourcePoint" />
            <mxPoint x="450" y="360" as="targetPoint" />
          </mxGeometry>
        </mxCell>
        <mxCell id="VJARk3BsmmFIXW5mxC81-26" style="edgeStyle=orthogonalEdgeStyle;rounded=0;orthogonalLoop=1;jettySize=auto;html=1;curved=0;" parent="1" source="VJARk3BsmmFIXW5mxC81-2" target="VJARk3BsmmFIXW5mxC81-3" edge="1">
          <mxGeometry relative="1" as="geometry">
            <Array as="points">
              <mxPoint x="570" y="670" />
              <mxPoint x="570" y="670" />
            </Array>
          </mxGeometry>
        </mxCell>
        <mxCell id="VJARk3BsmmFIXW5mxC81-27" value="Add entry" style="edgeLabel;html=1;align=center;verticalAlign=middle;resizable=0;points=[];labelBackgroundColor=none;" parent="VJARk3BsmmFIXW5mxC81-26" vertex="1" connectable="0">
          <mxGeometry x="-0.7061" y="-1" relative="1" as="geometry">
            <mxPoint x="1" y="-11" as="offset" />
          </mxGeometry>
        </mxCell>
        <mxCell id="VJARk3BsmmFIXW5mxC81-28" style="edgeStyle=orthogonalEdgeStyle;rounded=0;orthogonalLoop=1;jettySize=auto;html=1;curved=0;dashed=1;endArrow=open;endFill=0;" parent="1" source="VJARk3BsmmFIXW5mxC81-3" target="VJARk3BsmmFIXW5mxC81-2" edge="1">
          <mxGeometry relative="1" as="geometry">
            <Array as="points">
              <mxPoint x="560" y="710" />
              <mxPoint x="560" y="710" />
            </Array>
          </mxGeometry>
        </mxCell>
        <mxCell id="VJARk3BsmmFIXW5mxC81-30" value="Return confirmation" style="edgeLabel;html=1;align=center;verticalAlign=middle;resizable=0;points=[];labelBackgroundColor=none;" parent="VJARk3BsmmFIXW5mxC81-28" vertex="1" connectable="0">
          <mxGeometry x="0.797" y="1" relative="1" as="geometry">
            <mxPoint x="138" y="-11" as="offset" />
          </mxGeometry>
        </mxCell>
        <mxCell id="VJARk3BsmmFIXW5mxC81-33" style="edgeStyle=orthogonalEdgeStyle;rounded=0;orthogonalLoop=1;jettySize=auto;html=1;curved=0;endArrow=open;endFill=0;" parent="1" source="VJARk3BsmmFIXW5mxC81-2" target="VJARk3BsmmFIXW5mxC81-1" edge="1">
          <mxGeometry relative="1" as="geometry">
            <Array as="points">
              <mxPoint x="340" y="740" />
              <mxPoint x="340" y="740" />
            </Array>
          </mxGeometry>
        </mxCell>
        <mxCell id="VJARk3BsmmFIXW5mxC81-35" value="Return to calendar view" style="edgeLabel;html=1;align=center;verticalAlign=middle;resizable=0;points=[];labelBackgroundColor=none;" parent="VJARk3BsmmFIXW5mxC81-33" vertex="1" connectable="0">
          <mxGeometry x="0.3966" y="-1" relative="1" as="geometry">
            <mxPoint x="124" y="-9" as="offset" />
          </mxGeometry>
        </mxCell>
        <mxCell id="VJARk3BsmmFIXW5mxC81-24" style="edgeStyle=orthogonalEdgeStyle;rounded=0;orthogonalLoop=1;jettySize=auto;html=1;curved=0;dashed=1;endArrow=open;endFill=0;" parent="1" source="VJARk3BsmmFIXW5mxC81-1" target="VJARk3BsmmFIXW5mxC81-2" edge="1">
          <mxGeometry relative="1" as="geometry">
            <Array as="points">
              <mxPoint x="310" y="640" />
              <mxPoint x="310" y="640" />
            </Array>
          </mxGeometry>
        </mxCell>
        <mxCell id="VJARk3BsmmFIXW5mxC81-25" value="Confirm" style="edgeLabel;html=1;align=center;verticalAlign=middle;resizable=0;points=[];labelBackgroundColor=none;" parent="VJARk3BsmmFIXW5mxC81-24" vertex="1" connectable="0">
          <mxGeometry x="-0.7759" relative="1" as="geometry">
            <mxPoint x="9" y="-10" as="offset" />
          </mxGeometry>
        </mxCell>
        <mxCell id="VJARk3BsmmFIXW5mxC81-19" style="edgeStyle=orthogonalEdgeStyle;rounded=0;orthogonalLoop=1;jettySize=auto;html=1;curved=0;endArrow=open;endFill=0;" parent="1" source="VJARk3BsmmFIXW5mxC81-1" target="VJARk3BsmmFIXW5mxC81-2" edge="1">
          <mxGeometry relative="1" as="geometry">
            <Array as="points">
              <mxPoint x="290" y="560" />
              <mxPoint x="290" y="560" />
            </Array>
          </mxGeometry>
        </mxCell>
        <mxCell id="VJARk3BsmmFIXW5mxC81-20" value="Select outfit" style="edgeLabel;html=1;align=center;verticalAlign=middle;resizable=0;points=[];labelBackgroundColor=none;" parent="VJARk3BsmmFIXW5mxC81-19" vertex="1" connectable="0">
          <mxGeometry x="-0.4448" y="3" relative="1" as="geometry">
            <mxPoint x="-30" y="-7" as="offset" />
          </mxGeometry>
        </mxCell>
        <mxCell id="VJARk3BsmmFIXW5mxC81-21" style="edgeStyle=orthogonalEdgeStyle;rounded=0;orthogonalLoop=1;jettySize=auto;html=1;curved=0;" parent="1" source="VJARk3BsmmFIXW5mxC81-2" target="VJARk3BsmmFIXW5mxC81-1" edge="1">
          <mxGeometry relative="1" as="geometry">
            <Array as="points">
              <mxPoint x="280" y="600" />
              <mxPoint x="280" y="600" />
            </Array>
          </mxGeometry>
        </mxCell>
        <mxCell id="VJARk3BsmmFIXW5mxC81-22" value="Ask for confirmation" style="edgeLabel;html=1;align=center;verticalAlign=middle;resizable=0;points=[];labelBackgroundColor=none;" parent="VJARk3BsmmFIXW5mxC81-21" vertex="1" connectable="0">
          <mxGeometry x="0.431" y="-3" relative="1" as="geometry">
            <mxPoint x="138" y="-7" as="offset" />
          </mxGeometry>
        </mxCell>
        <mxCell id="VJARk3BsmmFIXW5mxC81-15" style="edgeStyle=orthogonalEdgeStyle;rounded=0;orthogonalLoop=1;jettySize=auto;html=1;curved=0;endArrow=open;endFill=0;" parent="1" source="VJARk3BsmmFIXW5mxC81-2" target="VJARk3BsmmFIXW5mxC81-1" edge="1">
          <mxGeometry relative="1" as="geometry">
            <Array as="points">
              <mxPoint x="310" y="500" />
              <mxPoint x="310" y="500" />
            </Array>
          </mxGeometry>
        </mxCell>
        <mxCell id="VJARk3BsmmFIXW5mxC81-16" value="Display suggested outfits" style="edgeLabel;html=1;align=center;verticalAlign=middle;resizable=0;points=[];labelBackgroundColor=none;" parent="VJARk3BsmmFIXW5mxC81-15" vertex="1" connectable="0">
          <mxGeometry x="0.2034" relative="1" as="geometry">
            <mxPoint x="85" y="-10" as="offset" />
          </mxGeometry>
        </mxCell>
        <mxCell id="VJARk3BsmmFIXW5mxC81-13" style="edgeStyle=orthogonalEdgeStyle;rounded=0;orthogonalLoop=1;jettySize=auto;html=1;curved=0;endArrow=open;endFill=0;" parent="1" source="VJARk3BsmmFIXW5mxC81-2" target="VJARk3BsmmFIXW5mxC81-1" edge="1">
          <mxGeometry relative="1" as="geometry">
            <Array as="points">
              <mxPoint x="300" y="420" />
              <mxPoint x="300" y="420" />
            </Array>
          </mxGeometry>
        </mxCell>
        <mxCell id="VJARk3BsmmFIXW5mxC81-14" value="Display outfit gallery" style="edgeLabel;html=1;align=center;verticalAlign=middle;resizable=0;points=[];labelBackgroundColor=none;" parent="VJARk3BsmmFIXW5mxC81-13" vertex="1" connectable="0">
          <mxGeometry x="0.0034" y="-4" relative="1" as="geometry">
            <mxPoint x="76" y="-6" as="offset" />
          </mxGeometry>
        </mxCell>
        <mxCell id="VJARk3BsmmFIXW5mxC81-9" style="edgeStyle=orthogonalEdgeStyle;rounded=0;orthogonalLoop=1;jettySize=auto;html=1;curved=0;" parent="1" source="VJARk3BsmmFIXW5mxC81-1" target="VJARk3BsmmFIXW5mxC81-2" edge="1">
          <mxGeometry relative="1" as="geometry">
            <Array as="points">
              <mxPoint x="300" y="320" />
              <mxPoint x="300" y="320" />
            </Array>
          </mxGeometry>
        </mxCell>
        <mxCell id="VJARk3BsmmFIXW5mxC81-10" value="Choose method" style="edgeLabel;html=1;align=center;verticalAlign=middle;resizable=0;points=[];labelBackgroundColor=none;" parent="VJARk3BsmmFIXW5mxC81-9" vertex="1" connectable="0">
          <mxGeometry x="-0.6379" y="-1" relative="1" as="geometry">
            <mxPoint x="18" y="-11" as="offset" />
          </mxGeometry>
        </mxCell>
        <mxCell id="VJARk3BsmmFIXW5mxC81-7" style="edgeStyle=orthogonalEdgeStyle;rounded=0;orthogonalLoop=1;jettySize=auto;html=1;curved=0;endArrow=open;endFill=0;" parent="1" source="VJARk3BsmmFIXW5mxC81-2" target="VJARk3BsmmFIXW5mxC81-1" edge="1">
          <mxGeometry relative="1" as="geometry">
            <Array as="points">
              <mxPoint x="290" y="290" />
              <mxPoint x="290" y="290" />
            </Array>
          </mxGeometry>
        </mxCell>
        <mxCell id="VJARk3BsmmFIXW5mxC81-8" value="Offer selection methods" style="edgeLabel;html=1;align=center;verticalAlign=middle;resizable=0;points=[];labelBackgroundColor=none;" parent="VJARk3BsmmFIXW5mxC81-7" vertex="1" connectable="0">
          <mxGeometry x="0.3966" relative="1" as="geometry">
            <mxPoint x="124" y="-10" as="offset" />
          </mxGeometry>
        </mxCell>
        <mxCell id="VJARk3BsmmFIXW5mxC81-5" style="edgeStyle=orthogonalEdgeStyle;rounded=0;orthogonalLoop=1;jettySize=auto;html=1;curved=0;endArrow=open;endFill=0;" parent="1" source="VJARk3BsmmFIXW5mxC81-1" target="VJARk3BsmmFIXW5mxC81-2" edge="1">
          <mxGeometry relative="1" as="geometry">
            <Array as="points">
              <mxPoint x="290" y="260" />
              <mxPoint x="290" y="260" />
            </Array>
          </mxGeometry>
        </mxCell>
        <mxCell id="VJARk3BsmmFIXW5mxC81-6" value="Select date" style="edgeLabel;html=1;align=center;verticalAlign=middle;resizable=0;points=[];labelBackgroundColor=none;" parent="VJARk3BsmmFIXW5mxC81-5" vertex="1" connectable="0">
          <mxGeometry x="-0.2655" y="-1" relative="1" as="geometry">
            <mxPoint x="-46" y="-11" as="offset" />
          </mxGeometry>
        </mxCell>
        <mxCell id="VJARk3BsmmFIXW5mxC81-39" value="[browse suggested outfits]" style="text;html=1;align=center;verticalAlign=middle;resizable=0;points=[];autosize=1;strokeColor=none;fillColor=none;" parent="1" vertex="1">
          <mxGeometry x="130" y="440" width="170" height="30" as="geometry" />
        </mxCell>
        <mxCell id="VJARk3BsmmFIXW5mxC81-40" value="[choose from collection]" style="text;html=1;align=center;verticalAlign=middle;resizable=0;points=[];autosize=1;strokeColor=none;fillColor=none;" parent="1" vertex="1">
          <mxGeometry x="130" y="370" width="150" height="30" as="geometry" />
        </mxCell>
      </root>
    </mxGraphModel>
  </diagram>
</mxfile>
